<svg version="1.1" id="Layer_1" xmlns="http://www.w3.org/2000/svg" xmlns:xlink="http://www.w3.org/1999/xlink" x="0px" y="0px"
	 width="100%" viewBox="0 0 1024 1024" enable-background="new 0 0 1024 1024" xml:space="preserve">
<path fill="#000000" opacity="1.000000" stroke="none" 
	d="
M550.000000,1025.000000 
	C366.666656,1025.000000 183.833328,1025.000000 1.000000,1025.000000 
	C1.000000,683.666687 1.000000,342.333344 1.000000,1.000000 
	C342.333344,1.000000 683.666687,1.000000 1025.000000,1.000000 
	C1025.000000,342.333344 1025.000000,683.666687 1025.000000,1025.000000 
	C866.833313,1025.000000 708.666687,1025.000000 550.000000,1025.000000 
M760.474182,190.185364 
	C755.505310,190.084671 750.536499,189.896210 745.567627,189.895996 
	C579.570374,189.889053 413.573181,189.894943 247.575974,189.979309 
	C245.859818,189.980179 244.144226,191.048676 242.428375,191.618759 
	C243.171677,193.130371 243.577377,194.982254 244.707733,196.103745 
	C271.439026,222.625244 298.217560,249.099579 325.122406,275.444733 
	C326.684448,276.974274 329.382996,278.119904 331.559753,278.131744 
	C392.200623,278.461365 452.842255,278.697632 513.484070,278.785492 
	C564.649536,278.859650 615.815369,278.724548 666.981018,278.705994 
	C668.963135,278.705292 670.945374,278.953156 672.812805,280.007385 
	C672.765320,281.670593 672.676270,283.333801 672.676331,284.997009 
	C672.680115,373.203033 672.668030,461.409027 672.724915,549.615051 
	C672.734436,564.406189 673.045898,579.197266 673.452576,594.596436 
	C697.065369,617.614685 720.780701,640.528809 744.265930,663.676514 
	C776.413879,695.362488 808.356384,727.256958 840.497620,758.949890 
	C842.863586,761.282715 843.734375,763.574402 843.731079,766.770325 
	C843.688416,808.255371 843.704224,849.740723 843.888977,891.225159 
	C843.898621,893.386902 845.000305,896.111816 846.534119,897.614380 
	C873.420593,923.953064 900.450195,950.145630 927.468445,976.349670 
	C928.566589,977.414734 929.858276,978.280273 932.087769,980.058838 
	C932.087769,973.111389 932.089600,967.518127 932.087524,961.924866 
	C932.058411,883.785156 932.050232,805.645386 931.886963,727.505981 
	C931.882446,725.348083 930.744690,722.672974 929.231384,721.119812 
	C916.909668,708.473328 904.413696,695.995239 891.893005,683.544189 
	C849.841187,641.726318 807.750549,599.947632 765.713074,558.115356 
	C764.226196,556.635803 763.145325,554.748291 762.085693,552.122620 
	C762.095398,551.956177 762.113525,551.789734 762.113586,551.623291 
	C762.159424,432.318115 762.206726,313.012909 762.202087,193.707718 
	C762.202026,192.726135 761.497498,191.744568 760.474182,190.185364 
M163.044037,222.067947 
	C163.084259,180.990631 163.132385,139.913330 163.117523,98.836029 
	C163.117172,97.842300 162.414383,96.848831 161.804520,95.236641 
	C161.486847,94.852516 161.205490,94.430061 160.846329,94.089729 
	C133.275482,67.965942 105.703369,41.843502 78.090515,15.764179 
	C77.484665,15.191973 76.408005,15.118257 75.176247,14.678099 
	C75.066589,16.238932 74.920052,17.347513 74.920898,18.455982 
	C74.940514,43.950775 75.014412,69.445580 75.000893,94.940331 
	C74.972618,148.270004 74.925667,201.599686 74.789352,254.929138 
	C74.779900,258.627808 75.534554,261.498260 78.368423,264.175140 
	C89.105141,274.317200 99.700439,284.613312 110.188499,295.013275 
	C128.641174,313.310974 146.974182,331.729340 165.360916,350.093597 
	C190.703201,375.404877 216.088043,400.673889 241.301666,426.112671 
	C242.925415,427.750916 243.998627,430.675476 244.039185,433.023895 
	C244.338272,450.339233 244.376984,467.660278 244.372864,484.979462 
	C244.349976,580.968018 244.291245,676.956604 244.245911,772.945190 
	C244.241684,781.904297 244.245331,790.863403 244.245331,799.892029 
	C418.609009,799.892029 592.265503,799.892029 767.326294,799.892029 
	C765.057434,797.385620 763.726685,795.792664 762.270020,794.324585 
	C735.510925,767.354309 708.706726,740.428528 682.013916,713.392883 
	C679.450378,710.796387 676.792480,709.952332 673.228821,709.954956 
	C562.404602,710.035828 451.580322,710.021484 340.756042,710.021790 
	C338.315887,710.021790 335.875732,710.021790 333.224640,710.021790 
	C333.152252,708.416077 333.070953,707.447632 333.070190,706.479248 
	C333.020325,642.655701 332.963715,578.832214 332.937897,515.008667 
	C332.921661,474.844788 332.908783,434.680756 333.045929,394.517303 
	C333.056763,391.343170 331.928131,389.331421 329.786224,387.253876 
	C316.631714,374.494568 303.578552,361.630707 290.495667,348.797607 
	C251.133636,310.187164 211.766296,271.582123 172.425583,232.950012 
	C169.141754,229.725327 166.042068,226.313141 163.044037,222.067947 
M464.116241,366.572479 
	C452.510376,374.617340 440.883636,382.632324 429.308411,390.721069 
	C424.350281,394.185760 421.737000,398.922302 421.951782,405.104767 
	C422.055847,408.100464 422.129974,411.110291 421.966888,414.100006 
	C421.223267,427.733521 427.802490,437.716156 438.864410,444.197632 
	C448.961334,450.113708 459.951141,450.750641 470.346466,443.720825 
	C479.251831,437.698608 488.176880,431.705505 497.645844,425.327332 
	C497.738403,427.440277 497.855896,428.867523 497.855499,430.294708 
	C497.840210,482.111847 498.050903,533.931030 497.600830,585.744446 
	C497.504089,596.884521 505.217743,606.593750 514.705200,609.212585 
	C525.033081,612.063354 535.497864,611.738220 545.821777,610.280884 
	C558.076538,608.551025 564.701843,600.299927 564.911743,587.921692 
	C565.058655,579.260254 564.941895,570.594299 564.942932,561.930359 
	C564.950867,493.787292 564.964050,425.644226 564.961487,357.501160 
	C564.961060,346.093628 558.850281,337.364807 547.654541,335.152039 
	C539.148499,333.470886 530.268921,333.719666 521.567139,332.974426 
	C515.581604,332.461823 510.584045,334.579315 505.783447,337.924561 
	C492.152649,347.422943 478.411652,356.763214 464.116241,366.572479 
z"/>
<path fill="#F61F3B" opacity="1.000000" stroke="none" 
	d="
M162.856842,222.988068 
	C166.042068,226.313141 169.141754,229.725327 172.425583,232.950012 
	C211.766296,271.582123 251.133636,310.187164 290.495667,348.797607 
	C303.578552,361.630707 316.631714,374.494568 329.786224,387.253876 
	C331.928131,389.331421 333.056763,391.343170 333.045929,394.517303 
	C332.908783,434.680756 332.921661,474.844788 332.937897,515.008667 
	C332.963715,578.832214 333.020325,642.655701 333.070190,706.479248 
	C333.070953,707.447632 333.152252,708.416077 333.224640,710.021790 
	C335.875732,710.021790 338.315887,710.021790 340.756042,710.021790 
	C451.580322,710.021484 562.404602,710.035828 673.228821,709.954956 
	C676.792480,709.952332 679.450378,710.796387 682.013916,713.392883 
	C708.706726,740.428528 735.510925,767.354309 762.270020,794.324585 
	C763.726685,795.792664 765.057434,797.385620 767.326294,799.892029 
	C592.265503,799.892029 418.609009,799.892029 244.245331,799.892029 
	C244.245331,790.863403 244.241684,781.904297 244.245911,772.945190 
	C244.291245,676.956604 244.349976,580.968018 244.372864,484.979462 
	C244.376984,467.660278 244.338272,450.339233 244.039185,433.023895 
	C243.998627,430.675476 242.925415,427.750916 241.301666,426.112671 
	C216.088043,400.673889 190.703201,375.404877 165.360916,350.093597 
	C146.974182,331.729340 128.641174,313.310974 110.188499,295.013275 
	C99.700439,284.613312 89.105141,274.317200 78.368423,264.175140 
	C75.534554,261.498260 74.779900,258.627808 74.789352,254.929138 
	C74.925667,201.599686 74.972618,148.270004 75.000893,94.940331 
	C75.014412,69.445580 74.940514,43.950775 74.920898,18.455982 
	C74.920052,17.347513 75.066589,16.238932 75.176247,14.678099 
	C76.408005,15.118257 77.484665,15.191973 78.090515,15.764179 
	C105.703369,41.843502 133.275482,67.965942 160.846329,94.089729 
	C161.205490,94.430061 161.486847,94.852516 161.915543,96.024208 
	C162.019394,136.581604 161.998123,176.351456 162.041504,216.121231 
	C162.044006,218.410477 162.572922,220.699142 162.856842,222.988068 
z"/>
<path fill="#F61F3A" opacity="1.000000" stroke="none" 
	d="
M761.875244,553.050903 
	C763.145325,554.748291 764.226196,556.635803 765.713074,558.115356 
	C807.750549,599.947632 849.841187,641.726318 891.893005,683.544189 
	C904.413696,695.995239 916.909668,708.473328 929.231384,721.119812 
	C930.744690,722.672974 931.882446,725.348083 931.886963,727.505981 
	C932.050232,805.645386 932.058411,883.785156 932.087524,961.924866 
	C932.089600,967.518127 932.087769,973.111389 932.087769,980.058838 
	C929.858276,978.280273 928.566589,977.414734 927.468445,976.349670 
	C900.450195,950.145630 873.420593,923.953064 846.534119,897.614380 
	C845.000305,896.111816 843.898621,893.386902 843.888977,891.225159 
	C843.704224,849.740723 843.688416,808.255371 843.731079,766.770325 
	C843.734375,763.574402 842.863586,761.282715 840.497620,758.949890 
	C808.356384,727.256958 776.413879,695.362488 744.265930,663.676514 
	C720.780701,640.528809 697.065369,617.614685 673.492310,593.913940 
	C673.684204,591.581665 673.969360,589.931885 673.969727,588.281982 
	C673.994873,486.741821 674.001404,385.201630 673.956055,283.661499 
	C673.955383,282.135895 673.285278,280.610626 672.927551,279.085205 
	C670.945374,278.953156 668.963135,278.705292 666.981018,278.705994 
	C615.815369,278.724548 564.649536,278.859650 513.484070,278.785492 
	C452.842255,278.697632 392.200623,278.461365 331.559753,278.131744 
	C329.382996,278.119904 326.684448,276.974274 325.122406,275.444733 
	C298.217560,249.099579 271.439026,222.625244 244.707733,196.103745 
	C243.577377,194.982254 243.171677,193.130371 242.428375,191.618759 
	C244.144226,191.048676 245.859818,189.980179 247.575974,189.979309 
	C413.573181,189.894943 579.570374,189.889053 745.567627,189.895996 
	C750.536499,189.896210 755.505310,190.084671 760.762451,190.956207 
	C761.037415,310.378174 761.020264,429.029297 761.046692,547.680420 
	C761.047058,549.470642 761.587097,551.260742 761.875244,553.050903 
z"/>
<path fill="#F51E3A" opacity="1.000000" stroke="none" 
	d="
M464.415161,366.369110 
	C478.411652,356.763214 492.152649,347.422943 505.783447,337.924561 
	C510.584045,334.579315 515.581604,332.461823 521.567139,332.974426 
	C530.268921,333.719666 539.148499,333.470886 547.654541,335.152039 
	C558.850281,337.364807 564.961060,346.093628 564.961487,357.501160 
	C564.964050,425.644226 564.950867,493.787292 564.942932,561.930359 
	C564.941895,570.594299 565.058655,579.260254 564.911743,587.921692 
	C564.701843,600.299927 558.076538,608.551025 545.821777,610.280884 
	C535.497864,611.738220 525.033081,612.063354 514.705200,609.212585 
	C505.217743,606.593750 497.504089,596.884521 497.600830,585.744446 
	C498.050903,533.931030 497.840210,482.111847 497.855499,430.294708 
	C497.855896,428.867523 497.738403,427.440277 497.645844,425.327332 
	C488.176880,431.705505 479.251831,437.698608 470.346466,443.720825 
	C459.951141,450.750641 448.961334,450.113708 438.864410,444.197632 
	C427.802490,437.716156 421.223267,427.733521 421.966888,414.100006 
	C422.129974,411.110291 422.055847,408.100464 421.951782,405.104767 
	C421.737000,398.922302 424.350281,394.185760 429.308411,390.721069 
	C440.883636,382.632324 452.510376,374.617340 464.415161,366.369110 
z"/>
<path fill="#F02A4C" opacity="1.000000" stroke="none" 
	d="
M761.980469,552.586792 
	C761.587097,551.260742 761.047058,549.470642 761.046692,547.680420 
	C761.020264,429.029297 761.037415,310.378174 761.086304,191.245026 
	C761.497498,191.744568 762.202026,192.726135 762.202087,193.707718 
	C762.206726,313.012909 762.159424,432.318115 762.113586,551.623291 
	C762.113525,551.789734 762.095398,551.956177 761.980469,552.586792 
z"/>
<path fill="#FA2A49" opacity="1.000000" stroke="none" 
	d="
M672.870178,279.546295 
	C673.285278,280.610626 673.955383,282.135895 673.956055,283.661499 
	C674.001404,385.201630 673.994873,486.741821 673.969727,588.281982 
	C673.969360,589.931885 673.684204,591.581665 673.374939,593.609924 
	C673.045898,579.197266 672.734436,564.406189 672.724915,549.615051 
	C672.668030,461.409027 672.680115,373.203033 672.676331,284.997009 
	C672.676270,283.333801 672.765320,281.670593 672.870178,279.546295 
z"/>
<path fill="#F72F50" opacity="1.000000" stroke="none" 
	d="
M162.950439,222.528015 
	C162.572922,220.699142 162.044006,218.410477 162.041504,216.121231 
	C161.998123,176.351456 162.019394,136.581604 162.032898,96.333511 
	C162.414383,96.848831 163.117172,97.842300 163.117523,98.836029 
	C163.132385,139.913330 163.084259,180.990631 162.950439,222.528015 
z"/>
</svg>